<svg xmlns="http://www.w3.org/2000/svg" viewBox="0 0 64 64" width="64" height="64">
  <!-- Circular automation arrows (two arcs) -->
  <path d="M32 8 A24 24 0 1 1 8 32" fill="none" stroke="#7C3AED" stroke-width="3.5" stroke-linecap="round"/>
  <polyline points="26,3 32,8 27,14" fill="none" stroke="#7C3AED" stroke-width="3" stroke-linecap="round" stroke-linejoin="round"/>
  <path d="M32 56 A24 24 0 1 1 56 32" fill="none" stroke="#2DD4BF" stroke-width="3.5" stroke-linecap="round"/>
  <polyline points="38,61 32,56 37,50" fill="none" stroke="#2DD4BF" stroke-width="3" stroke-linecap="round" stroke-linejoin="round"/>
  <!-- Center circle -->
  <circle cx="32" cy="32" r="12" fill="#EDE9FE" stroke="#6366F1" stroke-width="2"/>
  <!-- Neural nodes inside -->
  <circle cx="27" cy="27" r="2.5" fill="#7C3AED"/>
  <circle cx="37" cy="27" r="2.5" fill="#7C3AED"/>
  <circle cx="27" cy="37" r="2.5" fill="#2DD4BF"/>
  <circle cx="37" cy="37" r="2.5" fill="#2DD4BF"/>
  <circle cx="32" cy="32" r="2.5" fill="#6366F1"/>
  <!-- Connections -->
  <line x1="27" y1="27" x2="32" y2="32" stroke="#7C3AED" stroke-width="1" opacity="0.7"/>
  <line x1="37" y1="27" x2="32" y2="32" stroke="#7C3AED" stroke-width="1" opacity="0.7"/>
  <line x1="27" y1="37" x2="32" y2="32" stroke="#2DD4BF" stroke-width="1" opacity="0.7"/>
  <line x1="37" y1="37" x2="32" y2="32" stroke="#2DD4BF" stroke-width="1" opacity="0.7"/>
</svg>
